<svg width="619" height="619" viewBox="0 0 619 619" fill="none" xmlns="http://www.w3.org/2000/svg">
    <rect width="619" height="619" rx="122" fill="white" />
    <path
        d="M81.05 281.62L82.07 295.05C84.79 289.95 88.4733 285.983 93.12 283.15C97.88 280.203 103.32 278.73 109.44 278.73C115.22 278.73 120.037 280.09 123.89 282.81C127.857 285.53 130.293 289.213 131.2 293.86C134.033 289.1 137.717 285.417 142.25 282.81C146.897 280.09 151.827 278.73 157.04 278.73C163.84 278.73 169.223 280.713 173.19 284.68C177.27 288.647 179.423 293.69 179.65 299.81V352H163.84V305.76C163.613 302.133 162.65 299.13 160.95 296.75C159.363 294.257 156.587 292.897 152.62 292.67C148.427 292.67 144.743 293.917 141.57 296.41C138.397 298.79 135.903 301.963 134.09 305.93C132.277 309.897 131.313 314.09 131.2 318.51V352H115.22V305.76C115.107 302.133 114.143 299.13 112.33 296.75C110.63 294.257 107.74 292.897 103.66 292.67C99.58 292.67 95.9533 293.917 92.78 296.41C89.6067 298.79 87.1133 301.963 85.3 305.93C83.4867 309.897 82.58 314.147 82.58 318.68V352H66.77V281.62H81.05ZM221.333 281.62L222.353 295.05C225.073 289.95 228.757 285.983 233.403 283.15C238.163 280.203 243.603 278.73 249.723 278.73C255.503 278.73 260.32 280.09 264.173 282.81C268.14 285.53 270.577 289.213 271.483 293.86C274.317 289.1 278 285.417 282.533 282.81C287.18 280.09 292.11 278.73 297.323 278.73C304.123 278.73 309.507 280.713 313.473 284.68C317.553 288.647 319.707 293.69 319.933 299.81V352H304.123V305.76C303.897 302.133 302.933 299.13 301.233 296.75C299.647 294.257 296.87 292.897 292.903 292.67C288.71 292.67 285.027 293.917 281.853 296.41C278.68 298.79 276.187 301.963 274.373 305.93C272.56 309.897 271.597 314.09 271.483 318.51V352H255.503V305.76C255.39 302.133 254.427 299.13 252.613 296.75C250.913 294.257 248.023 292.897 243.943 292.67C239.863 292.67 236.237 293.917 233.063 296.41C229.89 298.79 227.397 301.963 225.583 305.93C223.77 309.897 222.863 314.147 222.863 318.68V352H207.053V281.62H221.333ZM339.346 296.75C339.346 294.143 340.253 291.99 342.066 290.29C343.88 288.477 345.976 287.57 348.356 287.57C350.396 287.57 352.323 288.477 354.136 290.29C356.063 291.99 357.026 294.143 357.026 296.75C357.026 299.47 356.063 301.68 354.136 303.38C352.323 304.967 350.396 305.76 348.356 305.76C345.976 305.76 343.88 304.967 342.066 303.38C340.253 301.68 339.346 299.47 339.346 296.75ZM339.346 342.99C339.346 340.383 340.253 338.23 342.066 336.53C343.88 334.717 345.976 333.81 348.356 333.81C350.396 333.81 352.323 334.717 354.136 336.53C356.063 338.23 357.026 340.383 357.026 342.99C357.026 345.71 356.063 347.92 354.136 349.62C352.323 351.207 350.396 352 348.356 352C345.976 352 343.88 351.207 342.066 349.62C340.253 347.92 339.346 345.71 339.346 342.99ZM420.561 353.7C414.555 353.7 409.228 352.567 404.581 350.3C400.048 347.92 396.308 344.917 393.361 341.29V352H377.551V220.25H393.361V291.14C396.195 287.4 400.161 284.397 405.261 282.13C410.361 279.863 416.141 278.73 422.601 278.73C428.835 278.73 434.558 280.26 439.771 283.32C444.985 286.267 449.178 290.517 452.351 296.07C455.525 301.623 457.111 308.14 457.111 315.62C457.111 323.667 455.411 330.523 452.011 336.19C448.611 341.857 444.135 346.22 438.581 349.28C433.028 352.227 427.021 353.7 420.561 353.7ZM417.161 340.1C424.075 340.1 429.741 337.833 434.161 333.3C438.695 328.653 440.961 322.76 440.961 315.62C440.961 311.087 439.885 307.007 437.731 303.38C435.691 299.64 432.858 296.693 429.231 294.54C425.718 292.387 421.695 291.31 417.161 291.31C411.268 291.31 406.168 292.897 401.861 296.07C397.555 299.243 394.721 303.323 393.361 308.31V322.76C394.721 327.747 397.498 331.883 401.691 335.17C405.885 338.457 411.041 340.1 417.161 340.1ZM521.333 353.7C515.326 353.7 509.999 352.567 505.353 350.3C500.819 347.92 497.079 344.917 494.133 341.29V352H478.323V220.25H494.133V291.14C496.966 287.4 500.933 284.397 506.033 282.13C511.133 279.863 516.913 278.73 523.373 278.73C529.606 278.73 535.329 280.26 540.543 283.32C545.756 286.267 549.949 290.517 553.123 296.07C556.296 301.623 557.883 308.14 557.883 315.62C557.883 323.667 556.183 330.523 552.783 336.19C549.383 341.857 544.906 346.22 539.353 349.28C533.799 352.227 527.793 353.7 521.333 353.7ZM517.933 340.1C524.846 340.1 530.513 337.833 534.933 333.3C539.466 328.653 541.733 322.76 541.733 315.62C541.733 311.087 540.656 307.007 538.503 303.38C536.463 299.64 533.629 296.693 530.003 294.54C526.489 292.387 522.466 291.31 517.933 291.31C512.039 291.31 506.939 292.897 502.633 296.07C498.326 299.243 495.493 303.323 494.133 308.31V322.76C495.493 327.747 498.269 331.883 502.463 335.17C506.656 338.457 511.813 340.1 517.933 340.1Z"
        fill="black" />
</svg>