<svg width="100%" height="auto" viewBox="0 0 41 42" fill="none" xmlns="http://www.w3.org/2000/svg">
    <path
        d="M32.9375 40.5234L36.9297 36.6797C37.362 36.2422 37.6979 35.8828 37.9375 35.6016C38.1771 35.3203 38.3594 35.0443 38.4844 34.7734C38.6146 34.4974 38.6797 34.2057 38.6797 33.8984C38.6797 33.5599 38.5938 33.2604 38.4219 33C38.25 32.7396 38.0156 32.5391 37.7188 32.3984C37.4271 32.2526 37.0964 32.1797 36.7266 32.1797C36.3464 32.1797 36.013 32.2578 35.7266 32.4141C35.4401 32.5651 35.2161 32.7839 35.0547 33.0703C34.8984 33.3516 34.8203 33.6823 34.8203 34.0625H32.8906C32.8854 33.3594 33.0469 32.7422 33.375 32.2109C33.7031 31.6745 34.1615 31.2604 34.75 30.9688C35.3385 30.6771 36.0078 30.5312 36.7578 30.5312C37.513 30.5312 38.1823 30.6719 38.7656 30.9531C39.3542 31.2344 39.8099 31.6224 40.1328 32.1172C40.4609 32.612 40.625 33.1745 40.625 33.8047C40.6198 34.2422 40.5339 34.6641 40.3672 35.0703C40.2057 35.4766 39.9193 35.9271 39.5078 36.4219C39.1016 36.9167 38.5286 37.513 37.7891 38.2109L35.7734 40.2109V40.2969H40.7969V42H32.9453L32.9375 40.5234Z"
        fill="black" />
    <path d="M21 24.7979L21 30.7979L10 7.79793L10 1.79791L21 24.7979Z" fill="black" />
    <path
        d="M10 1.79793L10 7.79793C10 7.79793 7.78078 5.59889 6 4.79793C4.18395 3.9811 1.66974 5.67321 1 3.79793C0.737305 3.06238 1 1.79793 1 1.79793L10 1.79793Z"
        fill="black" />
    <path
        d="M30 28.7979C30.2627 29.5335 30 30.7979 30 30.7979L21 30.7979L21 24.7979C21 24.7979 23.2192 26.997 25 27.7979C26.8161 28.6148 29.3303 26.9226 30 28.7979Z"
        fill="black" />
    <path d="M27 0.797925L32 0.797925L4.99997 30.7979L1.14338e-06 30.7979L27 0.797925Z" fill="black" />
</svg>