<svg width="100%" height="100%" viewBox="0 0 53 53" fill="none" xmlns="http://www.w3.org/2000/svg">
    <path d="M45.7606 2.79358L49.9509 6.98396L22.7775 39.7445L13 29.967L45.7606 2.79358Z" fill="black" />
    <path
        d="M4.00004 44.5C2.43579 42.9357 8.50004 44.9747 8.50004 42.5C8.50004 40.9227 7.12297 37.1078 7.50004 35.5C8.24803 32.3107 12.3569 30.6113 12.3569 30.6113L22.1684 40.4227C22.1684 40.4227 19.9872 44.6137 17.5 45.9616C15.24 47.1865 13.563 47.6971 11 47.5C8.10576 47.2774 5.5643 46.0642 4.00004 44.5Z"
        fill="black" />
    <path d="M14 34.5C14 34.5 11.6201 35.6067 11 37C9.70756 39.904 14.8888 44.674 12 46C10.7578 46.5702 7.5 45 7.5 45"
        stroke="white" />
    <path d="M47.9393 5.0043L18 34.935" stroke="white" stroke-width="2" />
</svg>