<svg width="100%" height="100%" viewBox="0 0 48 48" fill="none" xmlns="http://www.w3.org/2000/svg">
    <rect y="15" width="48" height="32" fill="black" />
    <rect x="3" y="18" width="42" height="26" fill="white" />
    <path d="M0 8C0 6.34315 1.34315 5 3 5H45C46.6569 5 48 6.34315 48 8V15H0V8Z" fill="#C20000" />
    <line x1="11.5" y1="6.55671e-08" x2="11.5" y2="8" stroke="black" stroke-width="3" />
    <line x1="36.5" y1="6.55671e-08" x2="36.5" y2="8" stroke="black" stroke-width="3" />
    <path
        d="M18.6797 41H15.0977V24.6758H14.9883L10.3535 27.6426V24.375L15.2617 21.2031H18.6797V41ZM30.6836 41.2734C29.2891 41.2734 28.0404 41.0365 26.9375 40.5625C25.8438 40.0885 24.9779 39.4232 24.3398 38.5664C23.7109 37.7005 23.3828 36.7207 23.3555 35.627H26.9512C26.9785 36.1556 27.1608 36.6204 27.498 37.0215C27.8353 37.4134 28.2773 37.7188 28.8242 37.9375C29.3711 38.1562 29.9863 38.2656 30.6699 38.2656C31.3991 38.2656 32.0508 38.1426 32.625 37.8965C33.1992 37.6504 33.6458 37.304 33.9648 36.8574C34.2839 36.4108 34.4388 35.9004 34.4297 35.3262C34.4297 34.7246 34.2702 34.1914 33.9512 33.7266C33.6322 33.2617 33.1582 32.9017 32.5293 32.6465C31.9095 32.3822 31.1758 32.25 30.3281 32.25H28.5645V29.502H30.3281C31.0208 29.502 31.6406 29.3835 32.1875 29.1465C32.7344 28.9004 33.1536 28.5586 33.4453 28.1211C33.7461 27.6836 33.8965 27.1823 33.8965 26.6172C33.8965 26.0703 33.7643 25.5872 33.5 25.168C33.2448 24.7396 32.8757 24.4069 32.3926 24.1699C31.9186 23.9329 31.3626 23.8145 30.7246 23.8145C30.0957 23.8236 29.5169 23.9375 28.9883 24.1562C28.4596 24.375 28.0312 24.6895 27.7031 25.0996C27.375 25.5098 27.2018 25.9883 27.1836 26.5352H23.752C23.7793 25.4414 24.1029 24.4707 24.7227 23.623C25.3516 22.7663 26.1901 22.1055 27.2383 21.6406C28.2865 21.1667 29.4531 20.9297 30.7383 20.9297C32.0508 20.9297 33.2038 21.1758 34.1973 21.668C35.1999 22.151 35.9746 22.8118 36.5215 23.6504C37.0684 24.4798 37.3372 25.4004 37.3281 26.4121C37.3372 27.1413 37.1914 27.8021 36.8906 28.3945C36.599 28.987 36.1751 29.4792 35.6191 29.8711C35.0632 30.263 34.4251 30.5365 33.7051 30.6914V30.8418C34.6257 30.9694 35.4141 31.2428 36.0703 31.6621C36.7357 32.0723 37.237 32.61 37.5742 33.2754C37.9115 33.9316 38.0801 34.6745 38.0801 35.5039C38.0801 36.5977 37.7611 37.582 37.123 38.457C36.4941 39.332 35.6146 40.0202 34.4844 40.5215C33.3633 41.0228 32.0964 41.2734 30.6836 41.2734Z"
        fill="black" />
</svg>