<svg width="100%" height="auto" viewBox="0 0 53 53" fill="none" xmlns="http://www.w3.org/2000/svg">
    <path d="M45.7606 2.79358L49.9509 6.98396L22.7775 39.7445L13 29.967L45.7606 2.79358Z" fill="black" />
    <path
        d="M4.8374 48.0643C3.32976 46.5567 5.59683 43.0699 5.59683 43.0699C5.59683 43.0699 5.45175 39.5434 7.03529 36.5968C8.61883 33.6503 13.0045 31.7776 13.0045 31.7776L21.1827 39.9558C21.1827 39.9558 19.3474 44.4507 16.3853 45.9468C13.6312 47.3379 9.91222 47.3853 9.91222 47.3853C9.91222 47.3853 6.34503 49.572 4.8374 48.0643Z"
        fill="black" />
    <path
        d="M6.31606 47.3853L5.23721 47.7449L5.59683 46.666L9.5526 36.9564L16.7449 36.2372L16.0257 43.4295L6.31606 47.3853Z"
        fill="white" />
    <line x1="7.04134" y1="45.9529" x2="15.6721" y2="37.3221" stroke="black" />
    <path d="M48 5L18.0607 34.9307" stroke="white" stroke-width="2" />
</svg>