<svg width="100%" height="100%" viewBox="0 0 52 55" fill="none" xmlns="http://www.w3.org/2000/svg">
    <path d="M7.5 4L1.00481 1L13.9952 1L7.5 4Z" fill="black" />
    <path d="M31.5 4L25.0048 1L37.9952 1L31.5 4Z" fill="black" />
    <path d="M7.5 46L13.9952 49H1.00481L7.5 46Z" fill="black" />
    <path d="M31.5 46L37.9952 49H25.0048L31.5 46Z" fill="black" />
    <rect x="4" y="1" width="7" height="48" fill="black" />
    <rect x="28" y="1" width="7" height="48" fill="black" />
    <rect x="35" y="21" width="7" height="31" transform="rotate(90 35 21)" fill="black" />
    <path
        d="M43.7461 49.2344C42.4258 49.2344 41.25 49.0078 40.2188 48.5547C39.1875 48.0938 38.3789 47.457 37.793 46.6445C37.207 45.832 36.9102 44.9062 36.9023 43.8672H41.4023C41.4023 44.2109 41.5078 44.5156 41.7188 44.7812C41.9297 45.0469 42.2109 45.2539 42.5625 45.4023C42.9141 45.543 43.3125 45.6133 43.7578 45.6133C44.2031 45.6133 44.5977 45.5352 44.9414 45.3789C45.293 45.2227 45.5625 45.0039 45.75 44.7227C45.9375 44.4414 46.0273 44.1211 46.0195 43.7617C46.0195 43.4102 45.9141 43.0938 45.7031 42.8125C45.4922 42.5312 45.1836 42.3125 44.7773 42.1562C44.3789 42 43.9258 41.9219 43.418 41.9219H41.6953V38.8164H43.418C43.8789 38.8164 44.2891 38.7383 44.6484 38.582C45.0156 38.4258 45.2969 38.2109 45.4922 37.9375C45.6953 37.6641 45.7969 37.3477 45.7969 36.9883C45.7969 36.6602 45.7109 36.3633 45.5391 36.0977C45.375 35.832 45.1367 35.625 44.8242 35.4766C44.5195 35.3203 44.168 35.2422 43.7695 35.2422C43.3398 35.2422 42.957 35.3203 42.6211 35.4766C42.2852 35.625 42.0156 35.8398 41.8125 36.1211C41.6094 36.3945 41.5078 36.7031 41.5078 37.0469H37.2305C37.2383 36.0312 37.5234 35.125 38.0859 34.3281C38.6562 33.5234 39.4336 32.9023 40.418 32.4648C41.4023 32.0195 42.5195 31.7969 43.7695 31.7969C44.9961 31.7969 46.0898 32.0078 47.0508 32.4297C48.0195 32.8516 48.7695 33.4375 49.3008 34.1875C49.8398 34.9375 50.1055 35.7812 50.0977 36.7188C50.1055 37.3359 49.9648 37.8906 49.6758 38.3828C49.3867 38.875 48.9766 39.2734 48.4453 39.5781C47.9219 39.875 47.3281 40.0625 46.6641 40.1406V40.2812C47.5469 40.3828 48.293 40.6055 48.9023 40.9492C49.5117 41.293 49.9688 41.7383 50.2734 42.2852C50.5859 42.8242 50.7383 43.4414 50.7305 44.1367C50.7383 45.1211 50.4453 46 49.8516 46.7734C49.2578 47.5391 48.4297 48.1406 47.3672 48.5781C46.3047 49.0156 45.0977 49.2344 43.7461 49.2344Z"
        fill="#C20000" />
</svg>