<svg width="100%" height="auto" viewBox="0 0 52 55" fill="none" xmlns="http://www.w3.org/2000/svg">
    <path d="M7.5 4L1.00481 1L13.9952 1L7.5 4Z" fill="black" />
    <path d="M31.5 4L25.0048 1L37.9952 1L31.5 4Z" fill="black" />
    <path d="M7.5 46L13.9952 49H1.00481L7.5 46Z" fill="black" />
    <path d="M31.5 46L37.9952 49H25.0048L31.5 46Z" fill="black" />
    <rect x="4" y="1" width="7" height="48" fill="black" />
    <rect x="28" y="1" width="7" height="48" fill="black" />
    <rect x="35" y="21" width="7" height="31" transform="rotate(90 35 21)" fill="black" />
    <path
        d="M43.875 49.2344C42.6016 49.2344 41.4609 49.0078 40.4531 48.5547C39.4453 48.0938 38.6562 47.457 38.0859 46.6445C37.5156 45.832 37.2266 44.9062 37.2188 43.8672H41.5547C41.5703 44.2578 41.6836 44.6055 41.8945 44.9102C42.1055 45.207 42.3828 45.4375 42.7266 45.6016C43.0781 45.7656 43.4609 45.8438 43.875 45.8359C44.3594 45.8359 44.7852 45.7305 45.1523 45.5195C45.5273 45.3086 45.8203 45.0156 46.0312 44.6406C46.2422 44.2578 46.3477 43.8203 46.3477 43.3281C46.3477 42.8203 46.2422 42.375 46.0312 41.9922C45.8203 41.6094 45.5273 41.3125 45.1523 41.1016C44.7852 40.8906 44.3555 40.7852 43.8633 40.7852C43.3008 40.7852 42.8281 40.9023 42.4453 41.1367C42.0703 41.3633 41.7773 41.6953 41.5664 42.1328H37.582L38.332 32.0312H49.6055V35.6055H42L41.6484 39.4258H41.7422C42.0234 38.9102 42.4883 38.4922 43.1367 38.1719C43.793 37.8438 44.5391 37.6758 45.375 37.668C46.3672 37.668 47.2656 37.9023 48.0703 38.3711C48.875 38.8398 49.5039 39.4961 49.957 40.3398C50.418 41.1836 50.6484 42.1328 50.6484 43.1875C50.6484 44.3594 50.3672 45.4023 49.8047 46.3164C49.2422 47.2305 48.4492 47.9453 47.4258 48.4609C46.4023 48.9766 45.2188 49.2344 43.875 49.2344Z"
        fill="#C20000" />
</svg>