<svg width="100%" height="100%" viewBox="0 0 53 55" fill="none" xmlns="http://www.w3.org/2000/svg">
    <path d="M7.5 4L1.00481 1L13.9952 1L7.5 4Z" fill="black" />
    <path d="M31.5 4L25.0048 1L37.9952 1L31.5 4Z" fill="black" />
    <path d="M7.5 46L13.9952 49H1.00481L7.5 46Z" fill="black" />
    <path d="M31.5 46L37.9952 49H25.0048L31.5 46Z" fill="black" />
    <rect x="4" y="1" width="7" height="48" fill="black" />
    <rect x="28" y="1" width="7" height="48" fill="black" />
    <rect x="35" y="21" width="7" height="31" transform="rotate(90 35 21)" fill="black" />
    <path
        d="M38.1484 45.7891L44.4531 40.4922C44.9375 40.0781 45.3242 39.7188 45.6133 39.4141C45.9102 39.1016 46.1367 38.7812 46.293 38.4531C46.457 38.1172 46.5391 37.7578 46.5391 37.375C46.5391 36.9453 46.4414 36.5703 46.2461 36.25C46.0508 35.9297 45.7852 35.6836 45.4492 35.5117C45.1133 35.3398 44.7266 35.25 44.2891 35.2422C43.8516 35.25 43.4688 35.3398 43.1406 35.5117C42.8125 35.6836 42.5547 35.9414 42.3672 36.2852C42.1875 36.6289 42.0977 37.0391 42.0977 37.5156H37.8438C37.8438 36.3516 38.1055 35.3359 38.6289 34.4688C39.1602 33.6016 39.9141 32.9414 40.8906 32.4883C41.8672 32.0273 43.0039 31.7969 44.3008 31.7969C45.6211 31.7969 46.7773 32.0117 47.7695 32.4414C48.7695 32.8711 49.5352 33.4805 50.0664 34.2695C50.6055 35.0508 50.875 35.9609 50.875 37C50.875 37.6797 50.7383 38.3359 50.4648 38.9688C50.1992 39.6016 49.7148 40.3086 49.0117 41.0898C48.3164 41.8633 47.3398 42.7812 46.082 43.8438L44.3594 45.3203V45.4258H51.0742V49H38.1484V45.7891Z"
        fill="#C20000" />
</svg>