<svg width="100%" height="auto" viewBox="0 0 53 55" fill="none" xmlns="http://www.w3.org/2000/svg">
    <path d="M7.5 4L1.00481 1L13.9952 1L7.5 4Z" fill="black" />
    <path d="M31.5 4L25.0048 1L37.9952 1L31.5 4Z" fill="black" />
    <path d="M7.5 46L13.9952 49H1.00481L7.5 46Z" fill="black" />
    <path d="M31.5 46L37.9952 49H25.0048L31.5 46Z" fill="black" />
    <rect x="4" y="1" width="7" height="48" fill="black" />
    <rect x="28" y="1" width="7" height="48" fill="black" />
    <rect x="35" y="21" width="7" height="31" transform="rotate(90 35 21)" fill="black" />
    <path
        d="M36.9727 42.8242L43.8398 32.0312H46.9805V36.6953H45.1875L41.3906 42.6719V42.8125H51.4805V46.3047H36.9727V42.8242ZM45.2227 45.2383L45.3047 43.7266V32.0312H49.4883V49H45.2227V45.2383Z"
        fill="#C20000" />
</svg>