<svg width="100%" height="100%" viewBox="0 0 48 48" fill="none" xmlns="http://www.w3.org/2000/svg">
    <circle cx="24" cy="24" r="24" fill="black" />
    <circle cx="24" cy="24" r="21" fill="white" />
    <circle cx="17" cy="19" r="4" fill="black" />
    <circle cx="17" cy="19" r="2" fill="white" />
    <circle cx="31" cy="19" r="4" fill="black" />
    <path
        d="M12.1002 29.1604C12.4783 31.3415 13.9082 33.3433 16.12 34.7876C18.3317 36.232 21.1721 37.0188 24.1047 36.9997C27.0372 36.9805 29.8589 36.1565 32.0367 34.6835C34.2145 33.2104 35.5977 31.1902 35.925 29.0045L33.4344 28.7947C33.1754 30.5239 32.0811 32.1222 30.3581 33.2876C28.6352 34.453 26.4029 35.1048 24.0828 35.12C21.7628 35.1352 19.5156 34.5126 17.7658 33.37C16.016 32.2273 14.8847 30.6436 14.5856 28.918L12.1002 29.1604Z"
        fill="black" />
    <circle cx="31" cy="19" r="2" fill="white" />
</svg>