<svg width="100%" height="100%" viewBox="0 0 48 47" fill="none" xmlns="http://www.w3.org/2000/svg">
    <line y1="2.5" x2="48" y2="2.5" stroke="black" stroke-width="5" />
    <line x1="13" y1="23.5" x2="35" y2="23.5" stroke="black" stroke-width="3" />
    <line x1="13" y1="23.5" x2="35" y2="23.5" stroke="white" />
    <line y1="44.5" x2="48" y2="44.5" stroke="black" stroke-width="5" />
    <path
        d="M23.2929 39.7071C23.6834 40.0976 24.3166 40.0976 24.7071 39.7071L31.0711 33.3431C31.4616 32.9526 31.4616 32.3195 31.0711 31.9289C30.6805 31.5384 30.0474 31.5384 29.6569 31.9289L24 37.5858L18.3431 31.9289C17.9526 31.5384 17.3195 31.5384 16.9289 31.9289C16.5384 32.3195 16.5384 32.9526 16.9289 33.3431L23.2929 39.7071ZM23 23V39H25V23H23Z"
        fill="black" />
    <path
        d="M24.7071 7.29289C24.3166 6.90237 23.6834 6.90237 23.2929 7.29289L16.9289 13.6569C16.5384 14.0474 16.5384 14.6805 16.9289 15.0711C17.3195 15.4616 17.9526 15.4616 18.3431 15.0711L24 9.41421L29.6569 15.0711C30.0474 15.4616 30.6805 15.4616 31.0711 15.0711C31.4616 14.6805 31.4616 14.0474 31.0711 13.6569L24.7071 7.29289ZM25 25L25 8L23 8L23 25L25 25Z"
        fill="black" />
</svg>