<svg width="100%" height="100%" viewBox="0 0 53 53" fill="none" xmlns="http://www.w3.org/2000/svg">
    <path d="M45.7606 2.79358L49.9509 6.98396L22.7775 39.7445L13 29.967L45.7606 2.79358Z" fill="black" />
    <path
        d="M5.44261 47.1882C3.87836 45.6239 6.57384 42.3648 6.57384 42.3648C6.57384 42.3648 7.58594 36.4298 7.96302 34.822C8.711 31.6327 12.3568 30.6113 12.3568 30.6113L22.1683 40.4228C22.1683 40.4228 20.919 43.9384 17.8088 44.6678C16.201 45.0448 10.2142 45.9616 10.2142 45.9616C10.2142 45.9616 7.00686 48.7524 5.44261 47.1882Z"
        fill="black" />
    <line x1="7.35355" y1="40.6464" x2="11.8812" y2="45.1741" stroke="white" />
    <path d="M47.9393 5.0043L18 34.935" stroke="white" stroke-width="2" />
</svg>