<svg width="100%" height="100%" viewBox="0 0 36 51" fill="none" xmlns="http://www.w3.org/2000/svg">
    <path
        d="M36 17.5C36 27.165 27.7714 46 18 51C8.22857 46 0 27.165 0 17.5C0 7.83502 8.05888 0 18 0C27.9411 0 36 7.83502 36 17.5Z"
        fill="black" />
    <path
        d="M33 17.7843C33 26.5017 26.1429 43.4902 18 48C9.85714 43.4902 3 26.5017 3 17.7843C3 9.06688 9.71573 2 18 2C26.2843 2 33 9.06688 33 17.7843Z"
        fill="white" />
    <circle cx="18" cy="17" r="10" fill="black" />
    <circle cx="18" cy="17" r="8" fill="white" />
    <path d="M18 40L10.2058 30.25L25.7942 30.25L18 40Z" fill="#C20000" />
</svg>