<svg width="100%" height="100%" viewBox="0 0 45 40" fill="none" xmlns="http://www.w3.org/2000/svg">
    <path d="M4.8916 8H3.02637V2.64844H2.9873L1.43457 3.59082V1.99902L3.17285 0.929688H4.8916V8Z" fill="black" />
    <path
        d="M0.478516 16.6621L3.10547 14.4551C3.30729 14.2826 3.46842 14.1328 3.58887 14.0059C3.71257 13.8757 3.80697 13.7422 3.87207 13.6055C3.94043 13.4655 3.97461 13.3158 3.97461 13.1562C3.97461 12.9772 3.93392 12.821 3.85254 12.6875C3.77116 12.554 3.66048 12.4515 3.52051 12.3799C3.38053 12.3083 3.2194 12.2708 3.03711 12.2676C2.85482 12.2708 2.69531 12.3083 2.55859 12.3799C2.42188 12.4515 2.31445 12.5589 2.23633 12.7021C2.16146 12.8454 2.12402 13.0163 2.12402 13.2148H0.351562C0.351562 12.7298 0.460612 12.3066 0.678711 11.9453C0.900065 11.584 1.21419 11.3089 1.62109 11.1201C2.02799 10.9281 2.50163 10.832 3.04199 10.832C3.59212 10.832 4.07389 10.9215 4.4873 11.1006C4.90397 11.2796 5.22298 11.5335 5.44434 11.8623C5.66895 12.1878 5.78125 12.5671 5.78125 13C5.78125 13.2832 5.72428 13.5566 5.61035 13.8203C5.49967 14.084 5.29785 14.3786 5.00488 14.7041C4.71517 15.0264 4.30827 15.4089 3.78418 15.8516L3.06641 16.4668V16.5107H5.86426V18H0.478516V16.6621Z"
        fill="black" />
    <path
        d="M3.22754 29.0977C2.67741 29.0977 2.1875 29.0033 1.75781 28.8145C1.32812 28.6224 0.991211 28.3571 0.74707 28.0186C0.50293 27.68 0.379232 27.2943 0.375977 26.8613H2.25098C2.25098 27.0046 2.29492 27.1315 2.38281 27.2422C2.4707 27.3529 2.58789 27.4391 2.73438 27.501C2.88086 27.5596 3.04688 27.5889 3.23242 27.5889C3.41797 27.5889 3.58236 27.5563 3.72559 27.4912C3.87207 27.4261 3.98438 27.335 4.0625 27.2178C4.14062 27.1006 4.17806 26.9671 4.1748 26.8174C4.1748 26.6709 4.13086 26.5391 4.04297 26.4219C3.95508 26.3047 3.8265 26.2135 3.65723 26.1484C3.49121 26.0833 3.30241 26.0508 3.09082 26.0508H2.37305V24.7568H3.09082C3.28288 24.7568 3.45378 24.7243 3.60352 24.6592C3.75651 24.5941 3.8737 24.5046 3.95508 24.3906C4.03971 24.2767 4.08203 24.1449 4.08203 23.9951C4.08203 23.8584 4.04622 23.7347 3.97461 23.624C3.90625 23.5133 3.80697 23.4271 3.67676 23.3652C3.5498 23.3001 3.40332 23.2676 3.2373 23.2676C3.05827 23.2676 2.89876 23.3001 2.75879 23.3652C2.61882 23.4271 2.50651 23.5166 2.42188 23.6338C2.33724 23.7477 2.29492 23.8763 2.29492 24.0195H0.512695C0.515951 23.5964 0.634766 23.2188 0.869141 22.8867C1.10677 22.5514 1.43066 22.2926 1.84082 22.1104C2.25098 21.9248 2.71647 21.832 3.2373 21.832C3.74837 21.832 4.2041 21.9199 4.60449 22.0957C5.00814 22.2715 5.32064 22.5156 5.54199 22.8281C5.7666 23.1406 5.87728 23.4922 5.87402 23.8828C5.87728 24.14 5.81868 24.3711 5.69824 24.5762C5.5778 24.7812 5.4069 24.9473 5.18555 25.0742C4.96745 25.1979 4.72005 25.276 4.44336 25.3086V25.3672C4.8112 25.4095 5.12207 25.5023 5.37598 25.6455C5.62988 25.7887 5.82031 25.9743 5.94727 26.2021C6.07747 26.4268 6.14095 26.6839 6.1377 26.9736C6.14095 27.3838 6.01888 27.75 5.77148 28.0723C5.52409 28.3913 5.17904 28.6419 4.73633 28.8242C4.29362 29.0065 3.79069 29.0977 3.22754 29.0977Z"
        fill="black" />
    <path
        d="M0.405273 37.4268L3.2666 32.9297H4.5752V34.873H3.82812L2.24609 37.3633V37.4219H6.4502V38.877H0.405273V37.4268ZM3.84277 38.4326L3.87695 37.8027V32.9297H5.62012V40H3.84277V38.4326Z"
        fill="black" />
    <line x1="9" y1="4.5" x2="45" y2="4.5" stroke="black" stroke-width="5" />
    <line x1="9" y1="14.5" x2="45" y2="14.5" stroke="black" stroke-width="5" />
    <line x1="9" y1="25.5" x2="45" y2="25.5" stroke="black" stroke-width="5" />
    <line x1="9" y1="36.5" x2="45" y2="36.5" stroke="black" stroke-width="5" />
</svg>