<svg width="100%" height="100%" viewBox="0 0 34 28" fill="none" xmlns="http://www.w3.org/2000/svg">
    <circle cx="8" cy="20" r="8" fill="black" />
    <path
        d="M13.3647 20.5C13.7156 20.5 14.0038 20.7854 13.9634 21.1339C13.8573 22.0478 13.5232 22.9243 12.9872 23.6804C12.3283 24.6101 11.3969 25.3121 10.3217 25.6895C9.24659 26.067 8.08076 26.1011 6.98535 25.7873C6.09432 25.5321 5.28567 25.0568 4.63161 24.4097C4.38221 24.1629 4.42882 23.76 4.70268 23.5407V23.5407C4.97655 23.3214 5.37351 23.37 5.63132 23.6079C6.11455 24.0539 6.69745 24.3832 7.33524 24.5659C8.1776 24.8072 9.07412 24.781 9.9009 24.4907C10.7277 24.2005 11.4439 23.6606 11.9506 22.9457C12.3343 22.4045 12.5834 21.7831 12.6819 21.1329C12.7344 20.786 13.0139 20.5 13.3647 20.5V20.5Z"
        fill="white" />
    <circle cx="26" cy="20" r="8" fill="black" />
    <path
        d="M31.3647 20.5C31.7156 20.5 32.0038 20.7854 31.9634 21.1339C31.8573 22.0478 31.5232 22.9243 30.9872 23.6804C30.3283 24.6101 29.3969 25.3121 28.3217 25.6895C27.2466 26.067 26.0808 26.1011 24.9853 25.7873C24.0943 25.5321 23.2857 25.0568 22.6316 24.4097C22.3822 24.1629 22.4288 23.76 22.7027 23.5407V23.5407C22.9765 23.3214 23.3735 23.37 23.6313 23.6079C24.1146 24.0539 24.6975 24.3832 25.3352 24.5659C26.1776 24.8072 27.0741 24.781 27.9009 24.4907C28.7277 24.2005 29.4439 23.6606 29.9506 22.9457C30.3343 22.4045 30.5834 21.7831 30.6819 21.1329C30.7344 20.786 31.0139 20.5 31.3647 20.5V20.5Z"
        fill="white" />
    <path
        d="M3.02299 22.125C3.02299 22.125 1.87384 17.883 2.01144 15.125C2.16248 12.0975 2.69267 9.55003 4.51144 7.125C6.01144 5.125 7.51144 3.625 10.5114 2.625C13.5114 1.625 15.0114 2.125 15.0114 2.125"
        stroke="black" stroke-width="3" />
    <path
        d="M21.023 22.125C21.023 22.125 19.8738 17.883 20.0114 15.125C20.1625 12.0975 20.6927 9.55003 22.5114 7.125C24.0114 5.125 25.5114 3.625 28.5114 2.625C31.5114 1.625 33.0114 2.125 33.0114 2.125"
        stroke="black" stroke-width="3" />
</svg>