<svg width="100%" height="auto" viewBox="0 0 52 48" fill="none" xmlns="http://www.w3.org/2000/svg">
    <path
        d="M48 24C48 19.2532 46.5924 14.6131 43.9553 10.6663C41.3181 6.71953 37.5698 3.64339 33.1844 1.82689C28.799 0.010388 23.9734 -0.464892 19.3178 0.461153C14.6623 1.3872 10.3859 3.67298 7.02944 7.02944C3.67298 10.3859 1.3872 14.6623 0.461153 19.3178C-0.464892 23.9734 0.0103881 28.799 1.82689 33.1844C3.64339 37.5698 6.71953 41.3181 10.6663 43.9553C14.6131 46.5924 19.2532 48 24 48L24 41.2431C20.5896 41.2431 17.2558 40.2319 14.4202 38.3371C11.5846 36.4424 9.37451 33.7494 8.06941 30.5987C6.76432 27.4479 6.42285 23.9809 7.08818 20.636C7.75351 17.2912 9.39576 14.2188 11.8073 11.8073C14.2188 9.39576 17.2912 7.75351 20.636 7.08818C23.9809 6.42285 27.4479 6.76432 30.5987 8.06941C33.7494 9.37451 36.4424 11.5846 38.3371 14.4202C40.2319 17.2558 41.2431 20.5896 41.2431 24H48Z"
        fill="black" />
    <path d="M44.5 34L37.1388 21.25L51.8612 21.25L44.5 34Z" fill="black" />
    <path
        d="M25 2C19.9783 2 15.0947 3.64347 11.0947 6.67946C7.09471 9.71544 4.19825 13.9771 2.84758 18.8137L5.10426 19.4439C6.31734 15.1 8.91874 11.2725 12.5112 8.54579C16.1037 5.81908 20.4899 4.34303 25 4.34303L25 2Z"
        fill="white" />
</svg>