<svg width="100%" height="auto" viewBox="0 0 46 44" fill="none" xmlns="http://www.w3.org/2000/svg">
    <path
        d="M23 0L28.3883 16.5836H45.8254L31.7185 26.8328L37.1068 43.4164L23 33.1672L8.89315 43.4164L14.2815 26.8328L0.174644 16.5836H17.6117L23 0Z"
        fill="black" />
    <path
        d="M23 8L26.5922 19.0557H38.2169L28.8123 25.8885L32.4046 36.9443L23 30.1115L13.5954 36.9443L17.1877 25.8885L7.7831 19.0557H19.4078L23 8Z"
        fill="white" />
    <path
        d="M23 8L26.5922 19.0557H38.2169L28.8123 25.8885L32.4046 36.9443L23 30.1115L13.5954 36.9443L17.1877 25.8885L7.7831 19.0557H19.4078L23 8Z"
        fill="white" />
    <path
        d="M23 8L26.5922 19.0557H38.2169L28.8123 25.8885L32.4046 36.9443L23 30.1115L13.5954 36.9443L17.1877 25.8885L7.7831 19.0557H19.4078L23 8Z"
        fill="white" />
    <path
        d="M23 14L25.2451 20.9098H32.5106L26.6327 25.1803L28.8779 32.0902L23 27.8197L17.1221 32.0902L19.3673 25.1803L13.4894 20.9098H20.7549L23 14Z"
        fill="white" />
    <path
        d="M23 14L25.2451 20.9098H32.5106L26.6327 25.1803L28.8779 32.0902L23 27.8197L17.1221 32.0902L19.3673 25.1803L13.4894 20.9098H20.7549L23 14Z"
        fill="white" />
    <path
        d="M23 14L25.2451 20.9098H32.5106L26.6327 25.1803L28.8779 32.0902L23 27.8197L17.1221 32.0902L19.3673 25.1803L13.4894 20.9098H20.7549L23 14Z"
        fill="black" />
</svg>