<svg width="100%" height="auto" viewBox="0 0 42 43" fill="none" xmlns="http://www.w3.org/2000/svg">
    <path
        d="M33.9375 10.5234L37.9297 6.67969C38.362 6.24219 38.6979 5.88281 38.9375 5.60156C39.1771 5.32031 39.3594 5.04427 39.4844 4.77344C39.6146 4.4974 39.6797 4.20573 39.6797 3.89844C39.6797 3.5599 39.5938 3.26042 39.4219 3C39.25 2.73958 39.0156 2.53906 38.7188 2.39844C38.4271 2.2526 38.0964 2.17969 37.7266 2.17969C37.3464 2.17969 37.013 2.25781 36.7266 2.41406C36.4401 2.5651 36.2161 2.78385 36.0547 3.07031C35.8984 3.35156 35.8203 3.68229 35.8203 4.0625H33.8906C33.8854 3.35938 34.0469 2.74219 34.375 2.21094C34.7031 1.67448 35.1615 1.26042 35.75 0.96875C36.3385 0.677083 37.0078 0.53125 37.7578 0.53125C38.513 0.53125 39.1823 0.671875 39.7656 0.953125C40.3542 1.23438 40.8099 1.6224 41.1328 2.11719C41.4609 2.61198 41.625 3.17448 41.625 3.80469C41.6198 4.24219 41.5339 4.66406 41.3672 5.07031C41.2057 5.47656 40.9193 5.92708 40.5078 6.42188C40.1016 6.91667 39.5286 7.51302 38.7891 8.21094L36.7734 10.2109V10.2969H41.7969V12H33.9453L33.9375 10.5234Z"
        fill="black" />
    <path d="M21 37L21 43L10 20L10 14L21 37Z" fill="black" />
    <path
        d="M10 14L10 20C10 20 7.78078 17.801 6 17C4.18395 16.1832 1.66974 17.8753 1 16C0.737305 15.2645 1 14 1 14L10 14Z"
        fill="black" />
    <path
        d="M30 41C30.2627 41.7355 30 43 30 43L21 43L21 37C21 37 23.2192 39.199 25 40C26.8161 40.8168 29.3303 39.1247 30 41Z"
        fill="black" />
    <path d="M27 13L32 13L4.99997 43L1.14338e-06 43L27 13Z" fill="black" />
</svg>