<svg width="100%" height="100%" viewBox="0 0 48 43" fill="none" xmlns="http://www.w3.org/2000/svg">
    <line y1="41.5" x2="48" y2="41.5" stroke="#C20000" stroke-width="3" />
    <path
        d="M6 19.898C6 24.9641 7.89642 29.8228 11.2721 33.4051C14.6477 36.9875 19.2261 39 24 39C28.7739 39 33.3523 36.9875 36.7279 33.4051C40.1036 29.8228 42 24.9641 42 19.898L36.0155 19.898C36.0155 23.2798 34.7496 26.5231 32.4962 28.9144C30.2429 31.3057 27.1867 32.6491 24 32.6491C20.8133 32.6491 17.7571 31.3057 15.5038 28.9144C13.2504 26.5231 11.9845 23.2798 11.9845 19.898L6 19.898Z"
        fill="black" />
    <rect x="6" width="6" height="20" fill="black" />
    <rect x="36" width="6" height="20" fill="black" />
</svg>