<svg width="100%" height="100%" viewBox="0 0 53 48" fill="none" xmlns="http://www.w3.org/2000/svg">
    <path
        d="M29 48C33.7468 48 38.3869 46.5924 42.3337 43.9553C46.2805 41.3181 49.3566 37.5698 51.1731 33.1844C52.9896 28.799 53.4649 23.9734 52.5388 19.3178C51.6128 14.6623 49.327 10.3859 45.9706 7.02944C42.6141 3.67298 38.3377 1.3872 33.6822 0.461154C29.0266 -0.464892 24.201 0.0103875 19.8156 1.82689C15.4302 3.64339 11.6819 6.71953 9.04473 10.6663C6.40758 14.6131 5 19.2532 5 24L11.7569 24C11.7569 20.5896 12.7682 17.2558 14.6629 14.4202C16.5576 11.5846 19.2506 9.3745 22.4013 8.06941C25.5521 6.76432 29.0191 6.42285 32.364 7.08818C35.7088 7.75351 38.7812 9.39576 41.1927 11.8073C43.6042 14.2188 45.2465 17.2912 45.9118 20.636C46.5772 23.9809 46.2357 27.4479 44.9306 30.5987C43.6255 33.7494 41.4154 36.4424 38.5798 38.3372C35.7442 40.2319 32.4104 41.2431 29 41.2431L29 48Z"
        fill="black" />
    <path
        d="M49.7602 17.5507C48.1338 12.7997 44.9972 8.71156 40.8293 5.9105C36.6614 3.10944 31.6914 1.74939 26.678 2.03802L26.8127 4.37718C31.3153 4.11795 35.7791 5.33945 39.5224 7.85516C43.2657 10.3709 46.0827 14.0425 47.5435 18.3095L49.7602 17.5507Z"
        fill="white" />
    <path d="M8.5 34L1.13879 21.25L15.8612 21.25L8.5 34Z" fill="black" />
</svg>