<svg width="100%" height="100%" viewBox="0 0 50 42" fill="none" xmlns="http://www.w3.org/2000/svg">
    <rect x="8.25" width="10.5" height="7" fill="black" />
    <path d="M13.5 0H18.75L27 40H21.75L13.5 0Z" fill="black" />
    <path d="M13.5 0H8.25L0 40H5.25L13.5 0Z" fill="black" />
    <rect x="5.25" y="19" width="15.75" height="7" fill="black" />
    <path
        d="M30.3437 26.3501C30.3437 26.3501 29.8437 20.8502 36.8437 20.8501C39.8883 20.8501 44.0482 21.5 43.8437 25.8501C43.6872 29.1785 43.2327 35.2619 44.947 37.1535C46.7958 39.1935 49.3966 39.435 49.3966 39.435"
        stroke="black" stroke-width="3" />
    <path
        d="M43.3602 30.4459C43.3602 30.4459 35.1405 28.7909 32.2394 30.9976C29.7257 32.9097 28.8548 35.9628 31.2724 38.1695C33.4841 40.1883 37.5376 40.0863 40.3437 39.3501C44.8437 38.1695 43.8437 33.8501 43.8437 33.8501"
        stroke="black" stroke-width="3" />
</svg>